<svg viewBox="0 0 200 200" xmlns="http://www.w3.org/2000/svg">
  <defs>
    <linearGradient id="spiralGradV2" x1="0%" y1="0%" x2="100%" y2="100%">
      <stop offset="0%" style="stop-color:#E07A5F;stop-opacity:0.3" />
      <stop offset="50%" style="stop-color:#E07A5F;stop-opacity:0.7" />
      <stop offset="100%" style="stop-color:#E07A5F;stop-opacity:0.95" />
    </linearGradient>
    <filter id="glowSpiralV2">
      <feGaussianBlur stdDeviation="2" result="coloredBlur"/>
      <feMerge>
        <feMergeNode in="coloredBlur"/>
        <feMergeNode in="SourceGraphic"/>
      </feMerge>
    </filter>
  </defs>

  <!-- 混沌沙粒：大面积随机分布 -->
  <g fill="#E07A5F">
    <!-- 左上区域密集 -->
    <circle cx="15" cy="25" r="1.5" opacity="0.35"/>
    <circle cx="32" cy="15" r="1.2" opacity="0.28"/>
    <circle cx="25" cy="42" r="1.4" opacity="0.32"/>
    <circle cx="48" cy="28" r="1" opacity="0.24"/>
    <circle cx="12" cy="55" r="1.3" opacity="0.3"/>
    <circle cx="52" cy="48" r="1.2" opacity="0.27"/>
    <circle cx="20" cy="72" r="1.1" opacity="0.26"/>
    <circle cx="42" cy="65" r="0.9" opacity="0.22"/>
    <circle cx="8" cy="88" r="1.4" opacity="0.33"/>
    <circle cx="35" cy="82" r="1.1" opacity="0.27"/>
    <circle cx="58" cy="75" r="1" opacity="0.24"/>
    <circle cx="18" cy="105" r="1.3" opacity="0.31"/>
    <circle cx="45" cy="98" r="1" opacity="0.25"/>
    <circle cx="28" cy="118" r="1.2" opacity="0.29"/>
    <circle cx="55" cy="112" r="0.9" opacity="0.23"/>
    <circle cx="10" cy="132" r="1.4" opacity="0.34"/>
    <circle cx="38" cy="128" r="1.1" opacity="0.28"/>
    <circle cx="22" cy="148" r="1.3" opacity="0.3"/>
    <circle cx="50" cy="142" r="1" opacity="0.25"/>
    <circle cx="15" cy="165" r="1.2" opacity="0.28"/>
    <circle cx="42" cy="158" r="0.9" opacity="0.22"/>
    <circle cx="28" cy="182" r="1.1" opacity="0.26"/>
    <circle cx="55" cy="175" r="1" opacity="0.24"/>

    <!-- 右上区域密集 -->
    <circle cx="148" cy="18" r="1.6" opacity="0.36"/>
    <circle cx="168" cy="28" r="1.3" opacity="0.29"/>
    <circle cx="185" cy="22" r="1.5" opacity="0.34"/>
    <circle cx="158" cy="42" r="1.1" opacity="0.27"/>
    <circle cx="178" cy="48" r="1.3" opacity="0.31"/>
    <circle cx="192" cy="38" r="1" opacity="0.24"/>
    <circle cx="145" cy="58" r="1.2" opacity="0.28"/>
    <circle cx="172" cy="65" r="0.9" opacity="0.22"/>
    <circle cx="188" cy="58" r="1.4" opacity="0.32"/>
    <circle cx="155" cy="78" r="1.1" opacity="0.26"/>
    <circle cx="182" cy="85" r="1.2" opacity="0.29"/>
    <circle cx="168" cy="95" r="1" opacity="0.23"/>
    <circle cx="192" cy="92" r="1.3" opacity="0.3"/>
    <circle cx="148" cy="108" r="1" opacity="0.25"/>
    <circle cx="175" cy="115" r="1.2" opacity="0.28"/>
    <circle cx="188" cy="120" r="1" opacity="0.24"/>
    <circle cx="158" cy="132" r="0.9" opacity="0.22"/>
    <circle cx="185" cy="138" r="1.1" opacity="0.26"/>
    <circle cx="172" cy="148" r="1" opacity="0.24"/>
    <circle cx="192" cy="152" r="1.2" opacity="0.28"/>
    <circle cx="152" cy="165" r="0.9" opacity="0.21"/>
    <circle cx="178" cy="170" r="1.1" opacity="0.25"/>

    <!-- 左下区域 -->
    <circle cx="48" cy="165" r="1.3" opacity="0.3"/>
    <circle cx="72" cy="172" r="1.1" opacity="0.27"/>
    <circle cx="58" cy="188" r="1" opacity="0.24"/>
    <circle cx="35" cy="192" r="1.2" opacity="0.28"/>
    <circle cx="65" cy="182" r="0.9" opacity="0.22"/>

    <!-- 右下区域 -->
    <circle cx="125" cy="175" r="1.2" opacity="0.27"/>
    <circle cx="145" cy="182" r="1.4" opacity="0.31"/>
    <circle cx="168" cy="175" r="1.1" opacity="0.26"/>
    <circle cx="138" cy="188" r="1" opacity="0.23"/>
    <circle cx="158" cy="192" r="1.1" opacity="0.25"/>
    <circle cx="182" cy="185" r="0.9" opacity="0.21"/>

    <!-- 中心区域散布 -->
    <circle cx="75" cy="55" r="1" opacity="0.22"/>
    <circle cx="125" cy="52" r="0.9" opacity="0.2"/>
    <circle cx="85" cy="85" r="0.8" opacity="0.18"/>
    <circle cx="115" cy="78" r="1" opacity="0.23"/>
    <circle cx="95" cy="108" r="0.9" opacity="0.21"/>
    <circle cx="130" cy="102" r="0.8" opacity="0.19"/>
    <circle cx="72" cy="118" r="0.9" opacity="0.2"/>
    <circle cx="118" cy="122" r="1" opacity="0.22"/>
    <circle cx="142" cy="128" r="0.8" opacity="0.18"/>
    <circle cx="88" cy="138" r="0.9" opacity="0.21"/>
    <circle cx="108" cy="145" r="0.8" opacity="0.19"/>
    <circle cx="128" cy="152" r="0.9" opacity="0.2"/>
    <circle cx="85" cy="152" r="0.8" opacity="0.18"/>
  </g>

  <!-- 其他潜在螺线（淡色） -->
  <path d="M 165 125
           C 155 105, 135 95, 120 100
           S 100 120, 110 135
           S 140 148, 155 138"
        fill="none"
        stroke="#E07A5F"
        stroke-width="1.5"
        opacity="0.12"
        stroke-linecap="round"/>

  <path d="M 55 155
           C 65 135, 90 125, 105 135
           S 118 160, 102 168"
        fill="none"
        stroke="#E07A5F"
        stroke-width="1.5"
        opacity="0.14"
        stroke-linecap="round"/>

  <path d="M 155 85
           C 145 105, 125 115, 112 108
           S 98 85, 108 72"
        fill="none"
        stroke="#E07A5F"
        stroke-width="1.5"
        opacity="0.1"
        stroke-linecap="round"/>

  <!-- 主黄金螺线 -->
  <g filter="url(#glowSpiralV2)">
    <path d="M 160 160
             C 160 120, 120 80, 80 80
             S 20 120, 40 150
             S 100 160, 110 130
             S 85 95, 65 105
             S 55 135, 75 140
             S 95 125, 88 115
             S 70 115, 75 125"
          fill="none"
          stroke="url(#spiralGradV2)"
          stroke-width="4.5"
          stroke-linecap="round"/>
  </g>

  <!-- 螺线路径上的节点 -->
  <circle cx="160" cy="160" r="5" fill="#E07A5F" opacity="0.95"/>
  <circle cx="80" cy="80" r="3.5" fill="#E07A5F" opacity="0.82"/>
  <circle cx="40" cy="150" r="3" fill="#E07A5F" opacity="0.78"/>
  <circle cx="110" cy="130" r="3.5" fill="#E07A5F" opacity="0.82"/>
  <circle cx="65" cy="105" r="3" fill="#E07A5F" opacity="0.75"/>
  <circle cx="75" cy="140" r="2.5" fill="#E07A5F" opacity="0.72"/>
  <circle cx="75" cy="125" r="4" fill="#E07A5F" opacity="0.9"/>
</svg>