<svg viewBox="0 0 200 200" xmlns="http://www.w3.org/2000/svg">
  <defs>
    <linearGradient id="mobiusGradV2" x1="0%" y1="0%" x2="100%" y2="100%">
      <stop offset="0%" style="stop-color:#E07A5F;stop-opacity:0.6" />
      <stop offset="50%" style="stop-color:#E07A5F;stop-opacity:0.95" />
      <stop offset="100%" style="stop-color:#E07A5F;stop-opacity:0.6" />
    </linearGradient>
    <filter id="glowMobiusV2">
      <feGaussianBlur stdDeviation="2.5" result="coloredBlur"/>
      <feMerge>
        <feMergeNode in="coloredBlur"/>
        <feMergeNode in="SourceGraphic"/>
      </feMerge>
    </filter>
  </defs>

  <!-- 混沌沙粒：大面积随机分布 -->
  <g fill="#E07A5F">
    <!-- 左上区域 -->
    <circle cx="18" cy="28" r="1.4" opacity="0.32"/>
    <circle cx="35" cy="18" r="1.2" opacity="0.28"/>
    <circle cx="25" cy="45" r="1.5" opacity="0.35"/>
    <circle cx="48" cy="32" r="1.1" opacity="0.26"/>
    <circle cx="12" cy="58" r="1.3" opacity="0.3"/>
    <circle cx="52" cy="48" r="1" opacity="0.24"/>
    <circle cx="20" cy="75" r="1.2" opacity="0.29"/>
    <circle cx="42" cy="65" r="0.9" opacity="0.22"/>
    <circle cx="8" cy="88" r="1.4" opacity="0.33"/>
    <circle cx="32" cy="82" r="1.1" opacity="0.27"/>
    <circle cx="55" cy="78" r="0.8" opacity="0.2"/>
    <circle cx="15" cy="105" r="1.3" opacity="0.31"/>
    <circle cx="45" cy="95" r="1" opacity="0.25"/>
    <circle cx="28" cy="118" r="1.2" opacity="0.28"/>
    <circle cx="58" cy="108" r="0.9" opacity="0.23"/>
    <circle cx="10" cy="132" r="1.4" opacity="0.34"/>
    <circle cx="38" cy="128" r="1.1" opacity="0.27"/>
    <circle cx="22" cy="148" r="1.3" opacity="0.3"/>
    <circle cx="48" cy="142" r="1" opacity="0.24"/>
    <circle cx="12" cy="168" r="1.2" opacity="0.28"/>
    <circle cx="35" cy="162" r="0.9" opacity="0.22"/>
    <circle cx="25" cy="185" r="1.1" opacity="0.26"/>

    <!-- 右上区域 -->
    <circle cx="148" cy="22" r="1.5" opacity="0.35"/>
    <circle cx="168" cy="32" r="1.2" opacity="0.29"/>
    <circle cx="185" cy="25" r="1.4" opacity="0.33"/>
    <circle cx="158" cy="45" r="1.1" opacity="0.27"/>
    <circle cx="178" cy="52" r="1.3" opacity="0.31"/>
    <circle cx="192" cy="42" r="1" opacity="0.24"/>
    <circle cx="145" cy="58" r="1.2" opacity="0.28"/>
    <circle cx="172" cy="68" r="0.9" opacity="0.22"/>
    <circle cx="188" cy="62" r="1.3" opacity="0.3"/>
    <circle cx="155" cy="78" r="1" opacity="0.25"/>
    <circle cx="182" cy="85" r="1.1" opacity="0.27"/>
    <circle cx="165" cy="95" r="0.9" opacity="0.21"/>
    <circle cx="192" cy="92" r="1.2" opacity="0.28"/>
    <circle cx="148" cy="108" r="1" opacity="0.24"/>
    <circle cx="175" cy="115" r="1.3" opacity="0.3"/>
    <circle cx="188" cy="122" r="1.1" opacity="0.26"/>
    <circle cx="158" cy="132" r="0.9" opacity="0.23"/>
    <circle cx="185" cy="138" r="1.2" opacity="0.29"/>
    <circle cx="168" cy="148" r="1" opacity="0.25"/>
    <circle cx="192" cy="155" r="1.1" opacity="0.27"/>
    <circle cx="152" cy="165" r="0.9" opacity="0.22"/>
    <circle cx="178" cy="172" r="1.2" opacity="0.28"/>

    <!-- 左下区域 -->
    <circle cx="55" cy="152" r="1.3" opacity="0.3"/>
    <circle cx="82" cy="158" r="1.1" opacity="0.27"/>
    <circle cx="68" cy="175" r="1" opacity="0.24"/>
    <circle cx="45" cy="178" r="1.2" opacity="0.29"/>
    <circle cx="72" cy="188" r="0.9" opacity="0.22"/>
    <circle cx="52" cy="192" r="1.1" opacity="0.26"/>

    <!-- 右下区域 -->
    <circle cx="128" cy="168" r="1.2" opacity="0.28"/>
    <circle cx="142" cy="182" r="1.4" opacity="0.32"/>
    <circle cx="118" cy="188" r="1" opacity="0.25"/>
    <circle cx="138" cy="195" r="1.1" opacity="0.27"/>

    <!-- 中心区域 -->
    <circle cx="88" cy="105" r="0.9" opacity="0.2"/>
    <circle cx="112" cy="98" r="1" opacity="0.23"/>
    <circle cx="95" cy="122" r="0.8" opacity="0.19"/>
    <circle cx="108" cy="128" r="0.9" opacity="0.21"/>
  </g>

  <!-- 其他潜在结构（淡色） -->
  <ellipse cx="65" cy="75" rx="22" ry="14" fill="none" stroke="#E07A5F" stroke-width="1.5" opacity="0.1" transform="rotate(-20 65 75)"/>
  <ellipse cx="145" cy="165" rx="25" ry="16" fill="none" stroke="#E07A5F" stroke-width="1.5" opacity="0.1" transform="rotate(30 145 165)"/>

  <!-- 莫比乌斯环：明显的单侧曲面扭转结构 -->
  <g filter="url(#glowMobiusV2)">
    <!-- 环的后半部分（被遮挡部分，更淡更细） -->
    <path d="M 65 145
             C 45 125, 45 85, 70 70
             C 95 55, 130 65, 145 85"
          fill="none"
          stroke="#E07A5F"
          stroke-width="2"
          opacity="0.25"
          stroke-linecap="round"/>

    <!-- 交叉点附近的过渡 -->
    <path d="M 145 85
             C 160 105, 155 130, 140 140"
          fill="none"
          stroke="#E07A5F"
          stroke-width="2.5"
          opacity="0.35"
          stroke-linecap="round"/>

    <!-- 环的前半部分（主体，更亮更粗） -->
    <!-- 下半部分 -->
    <path d="M 65 145
             C 85 160, 115 155, 135 140
             C 155 125, 160 95, 145 75
             C 130 55, 95 50, 75 65
             C 55 80, 50 110, 60 130
             C 70 150, 100 148, 115 135"
          fill="none"
          stroke="url(#mobiusGradV2)"
          stroke-width="6"
          stroke-linecap="round"/>

    <!-- 上半部分（完成扭转） -->
    <path d="M 115 135
             C 135 118, 138 90, 125 72
             C 112 54, 85 52, 70 68"
          fill="none"
          stroke="url(#mobiusGradV2)"
          stroke-width="5"
          opacity="0.85"
          stroke-linecap="round"/>
  </g>

  <!-- 扭转交叉点标记 -->
  <circle cx="90" cy="100" r="3" fill="#E07A5F" opacity="0.6"/>

  <!-- 莫比乌斯环上的关键节点 -->
  <circle cx="65" cy="145" r="5" fill="#E07A5F" opacity="0.95"/>
  <circle cx="145" cy="75" r="4.5" fill="#E07A5F" opacity="0.9"/>
  <circle cx="75" cy="65" r="4" fill="#E07A5F" opacity="0.85"/>
  <circle cx="135" cy="140" r="4" fill="#E07A5F" opacity="0.85"/>
  <circle cx="115" cy="135" r="3.5" fill="#E07A5F" opacity="0.8"/>
  <circle cx="125" cy="72" r="3" fill="#E07A5F" opacity="0.75"/>
</svg>